<svg xmlns="http://www.w3.org/2000/svg" viewBox="0 0 17 20" fill="currentColor">
  <path d="M13.984 10.416c-.016-2.336 1.92-3.456 2.016-3.52-1.12-1.632-2.848-1.856-3.456-1.872-1.472-.144-2.848.864-3.584.864-.736 0-1.888-.848-3.104-.816-1.6.032-3.088.928-3.92 2.368-1.664 2.864-.424 7.088 1.184 9.408.784 1.136 1.712 2.4 2.944 2.352 1.184-.048 1.632-.768 3.056-.768s1.824.768 3.088.736c1.28-.032 2.08-1.152 2.848-2.288.88-1.28 1.248-2.528 1.264-2.592-.032-.016-2.4-.928-2.416-3.664zm-2.256-7.04c.64-.784 1.072-1.872.944-2.976-.912.032-2.016.608-2.672 1.392-.576.672-1.088 1.76-.944 2.8 1.008.08 2.032-.512 2.672-1.216z"/>
</svg>
